<svg width="218" height="121" viewBox="0 0 218 121" fill="none" xmlns="http://www.w3.org/2000/svg">
<g filter="url(#filter0_d_1_4)">
<path d="M75.4901 49.7344H59.9361C59.652 47.7221 59.072 45.9347 58.196 44.3722C57.3201 42.786 56.1956 41.4366 54.8224 40.3239C53.4493 39.2112 51.8632 38.3589 50.0639 37.767C48.2884 37.1752 46.3589 36.8793 44.2756 36.8793C40.5114 36.8793 37.2325 37.8144 34.4389 39.6847C31.6454 41.5312 29.4792 44.2301 27.9403 47.7812C26.4015 51.3087 25.6321 55.5937 25.6321 60.6364C25.6321 65.821 26.4015 70.1771 27.9403 73.7045C29.5028 77.232 31.6809 79.8954 34.4744 81.6946C37.268 83.4938 40.4995 84.3935 44.169 84.3935C46.2287 84.3935 48.1345 84.1212 49.8864 83.5767C51.6619 83.0322 53.2363 82.2391 54.6094 81.1974C55.9825 80.1321 57.1188 78.8419 58.0185 77.3267C58.9418 75.8116 59.581 74.0833 59.9361 72.142L75.4901 72.2131C75.0876 75.5511 74.0814 78.7708 72.4716 81.8722C70.8854 84.9498 68.7429 87.7079 66.044 90.1463C63.3688 92.5611 60.1728 94.4787 56.456 95.8991C52.7628 97.2959 48.5843 97.9943 43.9205 97.9943C37.4337 97.9943 31.6335 96.5265 26.5199 93.5909C21.4299 90.6553 17.4053 86.4058 14.446 80.8423C11.5104 75.2789 10.0426 68.5436 10.0426 60.6364C10.0426 52.7055 11.5341 45.9583 14.517 40.3949C17.5 34.8314 21.5483 30.5937 26.6619 27.6818C31.7756 24.7462 37.5284 23.2784 43.9205 23.2784C48.1345 23.2784 52.0407 23.8703 55.6392 25.054C59.2614 26.2377 62.4692 27.9659 65.2628 30.2386C68.0563 32.4877 70.3291 35.2457 72.081 38.5128C73.8565 41.7798 74.9929 45.5204 75.4901 49.7344ZM125.969 45.1889C125.685 42.3243 124.466 40.099 122.312 38.5128C120.157 36.9266 117.234 36.1335 113.54 36.1335C111.031 36.1335 108.912 36.4886 107.184 37.1989C105.456 37.8854 104.13 38.8442 103.207 40.0753C102.307 41.3063 101.857 42.7031 101.857 44.2656C101.81 45.5677 102.082 46.7041 102.674 47.6747C103.29 48.6454 104.13 49.4858 105.195 50.196C106.261 50.8826 107.492 51.4863 108.888 52.0071C110.285 52.5043 111.777 52.9304 113.363 53.2855L119.897 54.848C123.069 55.5582 125.981 56.5052 128.633 57.6889C131.284 58.8726 133.581 60.3286 135.522 62.0568C137.463 63.785 138.967 65.821 140.032 68.1648C141.121 70.5085 141.677 73.1955 141.701 76.2259C141.677 80.6766 140.541 84.5355 138.292 87.8026C136.067 91.0459 132.847 93.5672 128.633 95.3665C124.442 97.142 119.388 98.0298 113.469 98.0298C107.598 98.0298 102.485 97.1302 98.1286 95.331C93.7962 93.5317 90.4107 90.8684 87.9723 87.3409C85.5575 83.7898 84.291 79.3982 84.1726 74.1662H99.0518C99.2176 76.6046 99.916 78.6406 101.147 80.2741C102.402 81.884 104.071 83.1032 106.154 83.9318C108.261 84.7367 110.64 85.1392 113.292 85.1392C115.896 85.1392 118.157 84.7604 120.075 84.0028C122.016 83.2453 123.519 82.1918 124.585 80.8423C125.65 79.4929 126.183 77.9422 126.183 76.1903C126.183 74.5568 125.697 73.1837 124.727 72.071C123.78 70.9583 122.383 70.0114 120.536 69.2301C118.713 68.4489 116.476 67.7386 113.825 67.0994L105.906 65.1108C99.7739 63.6193 94.9325 61.2874 91.3814 58.1151C87.8303 54.9427 86.0665 50.6695 86.0902 45.2955C86.0665 40.892 87.2384 37.045 89.6058 33.7543C91.9969 30.4635 95.2758 27.8949 99.4425 26.0483C103.609 24.2017 108.344 23.2784 113.647 23.2784C119.045 23.2784 123.756 24.2017 127.781 26.0483C131.829 27.8949 134.978 30.4635 137.227 33.7543C139.476 37.045 140.636 40.8565 140.707 45.1889H125.969ZM191.497 45.1889C191.213 42.3243 189.993 40.099 187.839 38.5128C185.685 36.9266 182.761 36.1335 179.068 36.1335C176.558 36.1335 174.44 36.4886 172.711 37.1989C170.983 37.8854 169.657 38.8442 168.734 40.0753C167.834 41.3063 167.385 42.7031 167.385 44.2656C167.337 45.5677 167.609 46.7041 168.201 47.6747C168.817 48.6454 169.657 49.4858 170.723 50.196C171.788 50.8826 173.019 51.4863 174.416 52.0071C175.813 52.5043 177.304 52.9304 178.89 53.2855L185.424 54.848C188.597 55.5582 191.509 56.5052 194.16 57.6889C196.812 58.8726 199.108 60.3286 201.049 62.0568C202.991 63.785 204.494 65.821 205.559 68.1648C206.648 70.5085 207.205 73.1955 207.228 76.2259C207.205 80.6766 206.068 84.5355 203.819 87.8026C201.594 91.0459 198.374 93.5672 194.16 95.3665C189.97 97.142 184.915 98.0298 178.997 98.0298C173.126 98.0298 168.012 97.1302 163.656 95.331C159.324 93.5317 155.938 90.8684 153.5 87.3409C151.085 83.7898 149.818 79.3982 149.7 74.1662H164.579C164.745 76.6046 165.443 78.6406 166.674 80.2741C167.929 81.884 169.598 83.1032 171.681 83.9318C173.788 84.7367 176.168 85.1392 178.819 85.1392C181.423 85.1392 183.684 84.7604 185.602 84.0028C187.543 83.2453 189.047 82.1918 190.112 80.8423C191.177 79.4929 191.71 77.9422 191.71 76.1903C191.71 74.5568 191.225 73.1837 190.254 72.071C189.307 70.9583 187.91 70.0114 186.064 69.2301C184.241 68.4489 182.003 67.7386 179.352 67.0994L171.433 65.1108C165.301 63.6193 160.46 61.2874 156.909 58.1151C153.358 54.9427 151.594 50.6695 151.618 45.2955C151.594 40.892 152.766 37.045 155.133 33.7543C157.524 30.4635 160.803 27.8949 164.97 26.0483C169.136 24.2017 173.871 23.2784 179.174 23.2784C184.572 23.2784 189.283 24.2017 193.308 26.0483C197.356 27.8949 200.505 30.4635 202.754 33.7543C205.003 37.045 206.163 40.8565 206.234 45.1889H191.497Z" fill="#F97316"/>
</g>
<g filter="url(#filter1_d_1_4)">
<path d="M45.1605 79V42.6364H52.7244V56.3082H52.9553C53.2867 55.5743 53.7661 54.8286 54.3935 54.071C55.0327 53.3016 55.8613 52.6624 56.8793 52.1534C57.9091 51.6326 59.1875 51.3722 60.7145 51.3722C62.7031 51.3722 64.5379 51.893 66.2188 52.9347C67.8996 53.9645 69.2431 55.5211 70.2493 57.6044C71.2554 59.6759 71.7585 62.2741 71.7585 65.3991C71.7585 68.4413 71.2673 71.0099 70.2848 73.1051C69.3142 75.1884 67.9884 76.7687 66.3075 77.8459C64.6385 78.9112 62.7682 79.4439 60.6967 79.4439C59.2289 79.4439 57.9801 79.2012 56.9503 78.7159C55.9323 78.2306 55.0978 77.621 54.4467 76.8871C53.7957 76.1413 53.2985 75.3897 52.9553 74.6321H52.6179V79H45.1605ZM52.5646 65.3636C52.5646 66.9853 52.7895 68.3999 53.2393 69.6072C53.6892 70.8146 54.3402 71.7557 55.1925 72.4304C56.0447 73.0933 57.0805 73.4247 58.2997 73.4247C59.5308 73.4247 60.5724 73.0874 61.4247 72.4126C62.277 71.7261 62.9221 70.7791 63.3601 69.5717C63.8099 68.3525 64.0348 66.9498 64.0348 65.3636C64.0348 63.7893 63.8158 62.4044 63.3778 61.2088C62.9399 60.0133 62.2947 59.0781 61.4425 58.4034C60.5902 57.7287 59.5426 57.3913 58.2997 57.3913C57.0687 57.3913 56.027 57.7169 55.1747 58.3679C54.3343 59.0189 53.6892 59.9422 53.2393 61.1378C52.7895 62.3333 52.5646 63.742 52.5646 65.3636ZM84.5826 79.5149C82.8425 79.5149 81.2918 79.2131 79.9306 78.6094C78.5693 77.9938 77.4921 77.0883 76.699 75.8928C75.9178 74.6854 75.5272 73.1821 75.5272 71.3828C75.5272 69.8677 75.8053 68.5952 76.3617 67.5653C76.918 66.5355 77.6756 65.7069 78.6344 65.0795C79.5932 64.4522 80.6822 63.9787 81.9015 63.6591C83.1325 63.3395 84.4228 63.1146 85.7722 62.9844C87.3584 62.8187 88.6368 62.6648 89.6074 62.5227C90.5781 62.3688 91.2824 62.1439 91.7203 61.848C92.1583 61.5521 92.3773 61.1141 92.3773 60.5341V60.4276C92.3773 59.303 92.0222 58.433 91.312 57.8175C90.6136 57.2019 89.6193 56.8942 88.329 56.8942C86.9677 56.8942 85.8846 57.196 85.0797 57.7997C84.2748 58.3916 83.7421 59.1373 83.4817 60.0369L76.486 59.4688C76.8411 57.8116 77.5395 56.3793 78.5811 55.1719C79.6228 53.9527 80.9663 53.0175 82.6117 52.3665C84.2689 51.7036 86.1865 51.3722 88.3645 51.3722C89.8797 51.3722 91.3297 51.5497 92.7147 51.9048C94.1114 52.2599 95.3484 52.8104 96.4256 53.5561C97.5146 54.3018 98.3728 55.2607 99.0002 56.4325C99.6275 57.5926 99.9412 58.9834 99.9412 60.6051V79H92.7679V75.218H92.5549C92.1169 76.0703 91.531 76.822 90.7971 77.473C90.0632 78.1122 89.1813 78.6153 88.1515 78.9822C87.1216 79.3374 85.932 79.5149 84.5826 79.5149ZM86.7488 74.2947C87.8614 74.2947 88.8439 74.0758 89.6962 73.6378C90.5485 73.188 91.2173 72.5843 91.7026 71.8267C92.1879 71.0691 92.4306 70.2109 92.4306 69.2521V66.358C92.1938 66.5118 91.8683 66.6539 91.454 66.7841C91.0516 66.9025 90.5958 67.0149 90.0868 67.1214C89.5778 67.2161 89.0688 67.3049 88.5598 67.3878C88.0508 67.4588 87.5892 67.5239 87.1749 67.5831C86.2871 67.7133 85.5118 67.9205 84.8489 68.2045C84.186 68.4886 83.6711 68.8733 83.3042 69.3587C82.9372 69.8321 82.7537 70.424 82.7537 71.1342C82.7537 72.1641 83.1266 72.9512 83.8723 73.4957C84.6299 74.0284 85.5887 74.2947 86.7488 74.2947ZM128.501 59.5043L121.577 59.9304C121.458 59.3385 121.204 58.8059 120.813 58.3324C120.422 57.8471 119.907 57.4624 119.268 57.1783C118.641 56.8823 117.889 56.7344 117.013 56.7344C115.841 56.7344 114.853 56.983 114.048 57.4801C113.243 57.9654 112.841 58.6165 112.841 59.4332C112.841 60.0843 113.101 60.6347 113.622 61.0845C114.143 61.5343 115.037 61.8954 116.303 62.1676L121.239 63.1619C123.891 63.7064 125.867 64.5824 127.17 65.7898C128.472 66.9972 129.123 68.5833 129.123 70.5483C129.123 72.3357 128.596 73.9041 127.542 75.2536C126.501 76.603 125.068 77.6565 123.246 78.4141C121.434 79.1598 119.345 79.5327 116.978 79.5327C113.367 79.5327 110.491 78.781 108.349 77.2777C106.218 75.7625 104.969 73.7029 104.602 71.0987L112.042 70.7081C112.267 71.8089 112.811 72.6494 113.675 73.2294C114.539 73.7976 115.646 74.0817 116.996 74.0817C118.321 74.0817 119.387 73.8272 120.192 73.3182C121.008 72.7973 121.423 72.1286 121.434 71.3118C121.423 70.6252 121.133 70.063 120.564 69.625C119.996 69.1752 119.12 68.8319 117.937 68.5952L113.214 67.6541C110.55 67.1214 108.568 66.1982 107.265 64.8842C105.975 63.5703 105.33 61.8954 105.33 59.8594C105.33 58.1075 105.804 56.5982 106.751 55.3317C107.709 54.0651 109.053 53.0885 110.781 52.402C112.521 51.7154 114.557 51.3722 116.889 51.3722C120.334 51.3722 123.044 52.1001 125.021 53.5561C127.01 55.0121 128.17 56.9948 128.501 59.5043ZM133.886 79V51.7273H141.45V79H133.886ZM137.685 48.2116C136.561 48.2116 135.596 47.8388 134.791 47.093C133.998 46.3355 133.602 45.4299 133.602 44.3764C133.602 43.3348 133.998 42.4411 134.791 41.6953C135.596 40.9377 136.561 40.5589 137.685 40.5589C138.81 40.5589 139.769 40.9377 140.562 41.6953C141.367 42.4411 141.769 43.3348 141.769 44.3764C141.769 45.4299 141.367 46.3355 140.562 47.093C139.769 47.8388 138.81 48.2116 137.685 48.2116ZM159.831 79.5327C157.038 79.5327 154.635 78.9408 152.622 77.7571C150.622 76.5616 149.083 74.9044 148.006 72.7855C146.941 70.6667 146.408 68.2282 146.408 65.4702C146.408 62.6766 146.946 60.2263 148.024 58.1193C149.113 56.0005 150.657 54.3492 152.658 53.1655C154.658 51.9699 157.038 51.3722 159.796 51.3722C162.175 51.3722 164.258 51.8042 166.046 52.6683C167.833 53.5324 169.248 54.7457 170.289 56.3082C171.331 57.8707 171.905 59.7055 172.012 61.8125H164.874C164.673 60.4512 164.14 59.3563 163.276 58.5277C162.423 57.6873 161.305 57.267 159.92 57.267C158.748 57.267 157.724 57.5866 156.848 58.2259C155.984 58.8532 155.309 59.7706 154.824 60.978C154.339 62.1854 154.096 63.6473 154.096 65.3636C154.096 67.1037 154.333 68.5833 154.806 69.8026C155.292 71.0218 155.972 71.951 156.848 72.5902C157.724 73.2294 158.748 73.549 159.92 73.549C160.784 73.549 161.559 73.3714 162.246 73.0163C162.944 72.6612 163.518 72.1463 163.968 71.4716C164.43 70.785 164.732 69.9624 164.874 69.0036H172.012C171.893 71.0869 171.325 72.9216 170.307 74.5078C169.301 76.0821 167.91 77.3132 166.134 78.201C164.359 79.0888 162.258 79.5327 159.831 79.5327Z" fill="#FDBA74" fill-opacity="0.5" shape-rendering="crispEdges"/>
</g>
<defs>
<filter id="filter0_d_1_4" x="0.0426102" y="17.2784" width="217.186" height="94.7514" filterUnits="userSpaceOnUse" color-interpolation-filters="sRGB">
<feFlood flood-opacity="0" result="BackgroundImageFix"/>
<feColorMatrix in="SourceAlpha" type="matrix" values="0 0 0 0 0 0 0 0 0 0 0 0 0 0 0 0 0 0 127 0" result="hardAlpha"/>
<feOffset dy="4"/>
<feGaussianBlur stdDeviation="5"/>
<feComposite in2="hardAlpha" operator="out"/>
<feColorMatrix type="matrix" values="0 0 0 0 0.645833 0 0 0 0 0.228733 0 0 0 0 0.228733 0 0 0 0.15 0"/>
<feBlend mode="normal" in2="BackgroundImageFix" result="effect1_dropShadow_1_4"/>
<feBlend mode="normal" in="SourceGraphic" in2="effect1_dropShadow_1_4" result="shape"/>
</filter>
<filter id="filter1_d_1_4" x="35.1605" y="34.5589" width="146.851" height="58.9737" filterUnits="userSpaceOnUse" color-interpolation-filters="sRGB">
<feFlood flood-opacity="0" result="BackgroundImageFix"/>
<feColorMatrix in="SourceAlpha" type="matrix" values="0 0 0 0 0 0 0 0 0 0 0 0 0 0 0 0 0 0 127 0" result="hardAlpha"/>
<feOffset dy="4"/>
<feGaussianBlur stdDeviation="5"/>
<feComposite in2="hardAlpha" operator="out"/>
<feColorMatrix type="matrix" values="0 0 0 0 0 0 0 0 0 0 0 0 0 0 0 0 0 0 0.15 0"/>
<feBlend mode="normal" in2="BackgroundImageFix" result="effect1_dropShadow_1_4"/>
<feBlend mode="normal" in="SourceGraphic" in2="effect1_dropShadow_1_4" result="shape"/>
</filter>
</defs>
</svg>
