<svg width="190" height="76" viewBox="0 0 190 76" fill="none" xmlns="http://www.w3.org/2000/svg">
<rect width="190" height="76" fill="#F5F5F5"/>
<path d="M62.3295 24H53.5227C53.0019 21.4669 52.0904 19.2415 50.7884 17.3239C49.5099 15.4062 47.9474 13.7964 46.1009 12.4943C44.2779 11.1686 42.2538 10.1742 40.0284 9.51136C37.803 8.84848 35.483 8.51704 33.0682 8.51704C28.6648 8.51704 24.6757 9.62973 21.1009 11.8551C17.5497 14.0805 14.7206 17.3594 12.6136 21.6918C10.5303 26.0241 9.48864 31.339 9.48864 37.6364C9.48864 43.9337 10.5303 49.2486 12.6136 53.581C14.7206 57.9134 17.5497 61.1922 21.1009 63.4176C24.6757 65.643 28.6648 66.7557 33.0682 66.7557C35.483 66.7557 37.803 66.4242 40.0284 65.7614C42.2538 65.0985 44.2779 64.116 46.1009 62.8139C47.9474 61.4882 49.5099 59.8665 50.7884 57.9489C52.0904 56.0076 53.0019 53.7822 53.5227 51.2727H62.3295C61.6667 54.9896 60.4593 58.3158 58.7074 61.2514C56.9555 64.187 54.7775 66.6847 52.1733 68.7443C49.5691 70.7803 46.6454 72.331 43.402 73.3963C40.1823 74.4616 36.7377 74.9943 33.0682 74.9943C26.8655 74.9943 21.3494 73.4792 16.5199 70.4489C11.6903 67.4186 7.89063 63.1098 5.12074 57.5227C2.35085 51.9356 0.965909 45.3068 0.965909 37.6364C0.965909 29.9659 2.35085 23.3371 5.12074 17.75C7.89063 12.1629 11.6903 7.85417 16.5199 4.82386C21.3494 1.79356 26.8655 0.278406 33.0682 0.278406C36.7377 0.278406 40.1823 0.811077 43.402 1.87642C46.6454 2.94176 49.5691 4.50426 52.1733 6.56392C54.7775 8.5999 56.9555 11.0857 58.7074 14.0213C60.4593 16.9332 61.6667 20.2595 62.3295 24ZM116.333 19.4545C115.907 15.8561 114.179 13.0625 111.149 11.0739C108.118 9.08523 104.402 8.09091 99.9982 8.09091C96.7785 8.09091 93.9613 8.61174 91.5465 9.65341C89.1554 10.6951 87.2852 12.1274 85.9357 13.9503C84.61 15.7732 83.9471 17.8447 83.9471 20.1648C83.9471 22.1061 84.4087 23.7751 85.332 25.1719C86.279 26.545 87.4864 27.6932 88.9542 28.6165C90.422 29.5161 91.9608 30.2618 93.5707 30.8537C95.1805 31.4219 96.6602 31.8835 98.0096 32.2386L105.396 34.2273C107.29 34.7244 109.397 35.411 111.717 36.2869C114.061 37.1629 116.298 38.3584 118.429 39.8736C120.583 41.3651 122.359 43.2827 123.755 45.6264C125.152 47.9702 125.85 50.8466 125.85 54.2557C125.85 58.1856 124.821 61.7367 122.761 64.9091C120.725 68.0814 117.742 70.6027 113.812 72.473C109.906 74.3433 105.159 75.2784 99.5721 75.2784C94.3638 75.2784 89.8538 74.438 86.0423 72.7571C82.2544 71.0762 79.2714 68.7325 77.0934 65.7259C74.939 62.7192 73.7198 59.2273 73.4357 55.25H82.5266C82.7634 57.9962 83.6867 60.2689 85.2965 62.0682C86.93 63.8437 88.9897 65.1695 91.4755 66.0455C93.985 66.8977 96.6838 67.3239 99.5721 67.3239C102.934 67.3239 105.952 66.7794 108.627 65.6903C111.303 64.5777 113.422 63.0388 114.984 61.0739C116.547 59.0852 117.328 56.7652 117.328 54.1136C117.328 51.6989 116.653 49.7339 115.304 48.2188C113.954 46.7036 112.179 45.4725 109.977 44.5256C107.775 43.5786 105.396 42.75 102.839 42.0398L93.8903 39.483C88.2085 37.8494 83.7103 35.5175 80.396 32.4872C77.0816 29.4569 75.4244 25.4915 75.4244 20.5909C75.4244 16.5189 76.5252 12.9678 78.7269 9.9375C80.9523 6.88352 83.9353 4.5161 87.6758 2.83523C91.44 1.13068 95.6422 0.278406 100.282 0.278406C104.97 0.278406 109.136 1.11884 112.782 2.79971C116.428 4.45691 119.316 6.72964 121.447 9.61789C123.601 12.5062 124.738 15.785 124.856 19.4545H116.333ZM180.103 19.4545C179.677 15.8561 177.949 13.0625 174.918 11.0739C171.888 9.08523 168.171 8.09091 163.768 8.09091C160.548 8.09091 157.731 8.61174 155.316 9.65341C152.925 10.6951 151.055 12.1274 149.705 13.9503C148.379 15.7732 147.717 17.8447 147.717 20.1648C147.717 22.1061 148.178 23.7751 149.102 25.1719C150.049 26.545 151.256 27.6932 152.724 28.6165C154.192 29.5161 155.73 30.2618 157.34 30.8537C158.95 31.4219 160.43 31.8835 161.779 32.2386L169.165 34.2273C171.059 34.7244 173.166 35.411 175.487 36.2869C177.83 37.1629 180.067 38.3584 182.198 39.8736C184.353 41.3651 186.128 43.2827 187.525 45.6264C188.922 47.9702 189.62 50.8466 189.62 54.2557C189.62 58.1856 188.59 61.7367 186.531 64.9091C184.495 68.0814 181.512 70.6027 177.582 72.473C173.675 74.3433 168.929 75.2784 163.342 75.2784C158.133 75.2784 153.623 74.438 149.812 72.7571C146.024 71.0762 143.041 68.7325 140.863 65.7259C138.709 62.7192 137.489 59.2273 137.205 55.25H146.296C146.533 57.9962 147.456 60.2689 149.066 62.0682C150.7 63.8437 152.759 65.1695 155.245 66.0455C157.754 66.8977 160.453 67.3239 163.342 67.3239C166.703 67.3239 169.722 66.7794 172.397 65.6903C175.072 64.5777 177.191 63.0388 178.754 61.0739C180.316 59.0852 181.097 56.7652 181.097 54.1136C181.097 51.6989 180.423 49.7339 179.073 48.2188C177.724 46.7036 175.948 45.4725 173.746 44.5256C171.545 43.5786 169.165 42.75 166.609 42.0398L157.66 39.483C151.978 37.8494 147.48 35.5175 144.165 32.4872C140.851 29.4569 139.194 25.4915 139.194 20.5909C139.194 16.5189 140.295 12.9678 142.496 9.9375C144.722 6.88352 147.705 4.5161 151.445 2.83523C155.21 1.13068 159.412 0.278406 164.052 0.278406C168.739 0.278406 172.906 1.11884 176.552 2.79971C180.198 4.45691 183.086 6.72964 185.217 9.61789C187.371 12.5062 188.507 15.785 188.626 19.4545H180.103Z" fill="#F97316"/>
</svg>
